<?xml version="1.0" standalone="no"?>
<!DOCTYPE svg PUBLIC "-//W3C//DTD SVG 20010904//EN"
 "http://www.w3.org/TR/2001/REC-SVG-20010904/DTD/svg10.dtd">
<svg version="1.0" xmlns="http://www.w3.org/2000/svg"
 width="200.000000pt" height="200.000000pt" viewBox="0 0 200.000000 200.000000"
 preserveAspectRatio="xMidYMid meet">
<metadata>
Created by potrace 1.14, written by Peter Selinger 2001-2017
</metadata>
<g transform="translate(0.000000,200.000000) scale(0.100000,-0.100000)"
fill="#000000" stroke="none">
<path d="M469 1779 l-34 -27 0 -524 c-1 -565 2 -598 53 -712 31 -71 39 -82
112 -157 101 -104 217 -156 365 -165 258 -17 484 135 571 382 12 36 23 73 23
82 0 9 2 41 4 71 3 48 -1 88 -17 174 -3 16 -18 57 -34 90 -92 195 -278 317
-490 322 -130 3 -237 -25 -324 -87 -15 -10 -29 -15 -31 -11 -2 5 -4 125 -4
267 l0 259 -37 34 c-31 29 -43 34 -80 32 -30 -2 -54 -11 -77 -30z m636 -671
c149 -39 257 -180 262 -340 2 -90 -10 -135 -53 -203 -74 -115 -174 -174 -307
-179 -196 -8 -368 154 -374 350 -5 172 88 310 247 367 71 26 142 27 225 5z"/>
</g>
</svg>
